<svg xmlns="http://www.w3.org/2000/svg" viewBox="0 0 1200 630" width="1200" height="630" fill="none">
  <defs>
    <linearGradient id="s" x1="0" y1="0" x2="1200" y2="630" gradientUnits="userSpaceOnUse">
      <stop offset="0%" stop-color="#3AA5FF"/>
      <stop offset="50%" stop-color="#FF5765"/>
      <stop offset="100%" stop-color="#D10F28"/>
    </linearGradient>
    <linearGradient id="ms" x1="880" y1="130" x2="880" y2="500" gradientUnits="userSpaceOnUse">
      <stop offset="0%" stop-color="#3AA5FF"/>
      <stop offset="42%" stop-color="#FF5765"/>
      <stop offset="100%" stop-color="#D10F28"/>
    </linearGradient>
    <linearGradient id="p" x1="760" y1="130" x2="1000" y2="500" gradientUnits="userSpaceOnUse">
      <stop offset="0%" stop-color="#1C212C"/>
      <stop offset="100%" stop-color="#0A0B10"/>
    </linearGradient>
    <radialGradient id="fogR" cx="0.5" cy="0.5" r="0.5">
      <stop offset="0%" stop-color="#D10F28" stop-opacity="0.40"/>
      <stop offset="100%" stop-color="#D10F28" stop-opacity="0"/>
    </radialGradient>
    <radialGradient id="fogB" cx="0.5" cy="0.5" r="0.5">
      <stop offset="0%" stop-color="#1878F0" stop-opacity="0.30"/>
      <stop offset="100%" stop-color="#1878F0" stop-opacity="0"/>
    </radialGradient>
    <radialGradient id="k" cx="0.5" cy="0.5" r="0.5">
      <stop offset="0%" stop-color="#D6EBFF"/>
      <stop offset="100%" stop-color="#3AA5FF"/>
    </radialGradient>
    <pattern id="grid" width="60" height="60" patternUnits="userSpaceOnUse">
      <path d="M60 0 L0 0 0 60" fill="none" stroke="#FFFFFF" stroke-opacity="0.05" stroke-width="1"/>
    </pattern>
  </defs>

  <rect width="1200" height="630" fill="#07080B"/>
  <rect width="1200" height="630" fill="url(#grid)"/>
  <ellipse cx="150" cy="560" rx="480" ry="360" fill="url(#fogR)"/>
  <ellipse cx="1000" cy="90" rx="420" ry="320" fill="url(#fogB)"/>

  <!-- Lambang -->
  <g transform="translate(760 128) scale(1.93)">
    <path d="M64 7 L104 22 L112 32 L112 74 C112 95 90 111 64 121 C38 111 16 95 16 74 L16 32 L24 22 Z" fill="url(#p)"/>
    <path d="M64 7 L104 22 L112 32 L112 74 C112 95 90 111 64 121 C38 111 16 95 16 74 L16 32 L24 22 Z" stroke="url(#ms)" stroke-width="3.5" stroke-linejoin="round"/>
    <path d="M64 16 L98 28 L104 36 L104 72 C104 89 86 103 64 112 C42 103 24 89 24 72 L24 36 L30 28 Z" stroke="url(#ms)" stroke-width="1.2" stroke-linejoin="round" opacity="0.32"/>
    <path d="M32 90 L48 53 L61 77 L77 45 L96 82" stroke="url(#ms)" stroke-width="9" stroke-linecap="square" stroke-linejoin="miter"/>
    <path d="M42 98 C52 104 76 104 90 96" stroke="url(#ms)" stroke-width="4.5" stroke-linecap="round" opacity="0.55"/>
    <path d="M77 31 L82.5 38.5 L77 46 L71.5 38.5 Z" fill="url(#k)"/>
  </g>

  <!-- Teks -->
  <g font-family="Segoe UI, Helvetica, Arial, sans-serif">
    <rect x="88" y="148" width="9" height="9" fill="#3AA5FF"/>
    <text x="112" y="157" fill="#9698A6" font-size="17" letter-spacing="4.6" font-weight="600">ABEPURA, JAYAPURA, PAPUA</text>

    <text x="88" y="262" fill="#F7F7F9" font-size="88" font-weight="800" letter-spacing="-3">NNG E-SPORT</text>
    <text x="88" y="348" fill="url(#s)" font-size="56" font-weight="800" letter-spacing="-2">Berdiri 2017.</text>
    <text x="88" y="412" fill="url(#s)" font-size="56" font-weight="800" letter-spacing="-2">Tidak pernah libur.</text>

    <rect x="88" y="456" width="330" height="1" fill="#FFFFFF" fill-opacity="0.14"/>

    <text x="88" y="502" fill="#9698A6" font-size="21">MLBB &#183; PUBG &#183; Valorant</text>
    <text x="88" y="536" fill="#9698A6" font-size="21">8.381 unggahan &#183; 9.660 pengikut</text>

    <text x="88" y="586" fill="#74768A" font-size="17" letter-spacing="2.4">nngesport.vercel.app</text>
  </g>
</svg>
